:FULLY-SPECIFIED
:FORCE-ALL-JOINTS-BE-3DOF
:DEGREES
612
root -4.21581 15.7489 -40.4831 356.522 -74.1774 369.801
lfemur -6.85817 13.2404 -15.9591
ltibia 42.9669 -0 0
lfoot -21.4487 29.4866 -0.0367444
ltoes -21.1855 0 0
rfemur -42.3467 -28.9984 16.2109
rtibia 74.1809 -0 0
rfoot -13.9026 -16.8456 0.514024
rtoes 0.236776 -0 0
lowerback 11.4786 4.94912 -6.68732
upperback -2.48321 5.4886 -1.22985
thorax -9.65211 2.96608 1.32279
lowerneck 1.83276 -10.9452 -12.0587
upperneck -0.807153 -14.9039 11.6461
head 1.2517 -7.49762 5.08351
lclavicle -4.95595e-14 -9.24349e-15 0
lhumerus -72.2736 -24.1361 105.207
lradius 102.558 0 0
lwrist 56.1074 0 0
lhand 9.93697 57.3523 0
lfingers 7.12502 0 0
lthumb 35.0666 83.8928 0
rclavicle -4.95595e-14 -9.24349e-15 0
rhumerus 26.1646 24.109 -44.8807
rradius 109.658 0 0
rwrist -23.0764 0 0
rhand -19.209 -30.8897 0
rfingers 7.12502 0 0
rthumb 7.1034 -60.7505 0
613
root -4.20479 15.7362 -40.4525 356.531 -74.5146 370.025
lfemur -7.1355 13.2959 -16.1187
ltibia 43.3042 0 0
lfoot -21.5468 29.7391 -0.0350147
ltoes -20.6816 0 0
rfemur -41.9097 -29.6394 16.7009
rtibia 74.8231 -0 0
rfoot -14.5948 -17.5917 0.568312
rtoes -0.582971 0 0
lowerback 11.2036 4.95788 -6.76689
upperback -2.60352 5.50125 -1.29482
thorax -9.62795 2.97741 1.30997
lowerneck 1.68853 -10.8974 -12.0761
upperneck -0.728978 -14.8313 11.6752
head 1.29304 -7.45737 5.08742
lclavicle 2.82274e-14 -1.78906e-15 0
lhumerus -72.2568 -24.0854 105.151
lradius 102.518 0 0
lwrist 55.9946 0 0
lhand 9.62744 57.4343 0
lfingers 7.12502 0 0
lthumb 34.7729 84.0431 0
rclavicle 2.82274e-14 -1.78906e-15 0
rhumerus 26.4411 22.1407 -45.1651
rradius 107.496 0 0
rwrist -24.7102 0 0
rhand -20.8987 -32.2606 0
rfingers 7.12502 0 0
rthumb 5.47211 -62.1699 0
614
root -4.19727 15.7243 -40.4217 356.954 -74.8976 369.829
lfemur -7.41306 13.3506 -16.2785
ltibia 44.9219 -0 0
lfoot -21.6448 29.9917 -0.0328527
ltoes -20.1777 0 0
rfemur -41.4762 -30.2835 17.1884
rtibia 75.4652 -0 0
rfoot -15.2878 -18.3383 0.613578
rtoes -1.40272 0 0
lowerback 10.9203 4.95912 -6.70357
upperback -2.71428 5.52852 -1.34016
thorax -9.576 2.98824 1.23842
lowerneck 1.54875 -10.8305 -12.0285
upperneck -0.703729 -14.7294 11.7148
head 1.31078 -7.40303 5.08919
lclavicle 3.18801e-14 -1.33186e-14 0
lhumerus -72.2576 -24.0633 105.161
lradius 102.44 0 0
lwrist 55.9679 0 0
lhand 9.17409 57.2102 0
lfingers 7.12502 0 0
lthumb 34.3426 83.9173 0
rclavicle 3.18801e-14 -1.33186e-14 0
rhumerus 26.7648 20.4167 -45.8762
rradius 105.1 0 0
rwrist -26.5484 0 0
rhand -22.7881 -33.6101 0
rfingers 7.12502 0 0
rthumb 3.64773 -63.5586 0
615
root -4.19428 15.712 -40.389 356.935 -75.2845 370.058
lfemur -7.69083 13.4046 -16.4387
ltibia 46.5396 -0 0
lfoot -21.7429 30.2442 -0.0302584
ltoes -19.6738 0 0
rfemur -41.0463 -30.9309 17.6735
rtibia 76.1074 -0 0
rfoot -15.9813 -19.0854 0.649809
rtoes -2.22246 0 0
lowerback 10.6208 4.94859 -6.60552
upperback -2.7857 5.53798 -1.47669
thorax -9.45602 2.9832 1.05892
lowerneck 1.37787 -10.7473 -11.9069
upperneck -0.668155 -14.6023 11.7377
head 1.32697 -7.33533 5.0749
lclavicle 2.97183e-14 -5.56597e-15 0
lhumerus -72.1891 -24.1274 105.015
lradius 102.373 0 0
lwrist 55.8718 0 0
lhand 8.76156 57.1342 0
lfingers 7.12502 0 0
lthumb 33.9508 83.9288 0
rclavicle 2.97183e-14 -5.56597e-15 0
rhumerus 27.0366 18.8254 -46.3058
rradius 102.867 0 0
rwrist -28.4456 0 0
rhand -24.5208 -34.8085 0
rfingers 7.12502 0 0
rthumb 1.97436 -64.7791 0
616
root -4.19404 15.6951 -40.3571 357.301 -75.7136 369.916
lfemur -7.96882 13.4579 -16.5992
ltibia 48.1574 -0 0
lfoot -21.841 30.4968 -0.0272318
ltoes -19.1699 0 0
rfemur -40.6199 -31.5813 18.1563
rtibia 76.7496 -0 0
rfoot -16.6752 -19.8329 0.676992
rtoes -3.04221 0 0
lowerback 10.3128 4.98507 -6.69108
upperback -2.87916 5.60538 -1.40172
thorax -9.40235 3.02593 1.1922
lowerneck 1.21875 -10.6936 -11.8647
upperneck -0.652777 -14.5121 11.6607
head 1.3375 -7.28534 5.04183
lclavicle -6.31141e-14 1.98785e-15 0
lhumerus -72.178 -24.0693 105.256
lradius 102.244 0 0
lwrist 55.9607 0 0
lhand 7.82303 56.8809 0
lfingers 7.12502 0 0
lthumb 33.0588 83.8687 0
rclavicle -6.31141e-14 1.98785e-15 0
rhumerus 27.2987 17.326 -46.8499
rradius 100.519 0 0
rwrist -30.2236 0 0
rhand -25.4408 -35.1675 0
rfingers 7.12502 0 0
rthumb 1.08587 -65.1445 0
